<?xml version="1.0" encoding="UTF-8"?>
<svg xmlns="http://www.w3.org/2000/svg" viewBox="0 0 1024 1024" role="img">
  <title>Muninn — ECT pantheon — dark variant</title>
  <desc>Customer knowledge base. Raven facing right, holding memory. Rendered in the dark color treatment.</desc>
  
  <g transform="translate(512, 512) scale(7.4)">
    
    <circle cx="0" cy="0" r="52" fill="none" stroke="#e4e4e4" stroke-width="2"/>
    <circle cx="0" cy="0" r="44" fill="none" stroke="#e4e4e4" stroke-width="0.6" opacity="0.5"/>
    <g stroke="#e4e4e4" stroke-width="1.6" fill="none">
      <path d="M 0 -48 C -14 -38 -14 -28 0 -22 C 14 -28 14 -38 0 -48"/>
      <path d="M 48 0 C 38 -14 28 -14 22 0 C 28 14 38 14 48 0"/>
      <path d="M 0 48 C 14 38 14 28 0 22 C -14 28 -14 38 0 48"/>
      <path d="M -48 0 C -38 14 -28 14 -22 0 C -28 -14 -38 -14 -48 0"/>
    </g>
    <circle cx="0" cy="-32" r="2.5" fill="#f3e830"/>
    <circle cx="32" cy="0" r="2.5" fill="#f3e830"/>
    <circle cx="0" cy="32" r="2.5" fill="#f3e830"/>
    <circle cx="-32" cy="0" r="2.5" fill="#f3e830"/>
    
    <ellipse cx="-2" cy="3" rx="14" ry="8" fill="#e4e4e4"/>
    <path d="M -12 -2 L -22 -4 L -20 8 Z" fill="#e4e4e4"/>
    <circle cx="10" cy="-3" r="7" fill="#e4e4e4"/>
    <path d="M 16 -4 L 26 -2 L 16 2 Z" fill="#e4e4e4"/>
    <circle cx="10" cy="-4" r="1.6" fill="#f3e830"/>
  </g>
</svg>
