<?xml version="1.0" encoding="UTF-8"?>
<svg xmlns="http://www.w3.org/2000/svg" viewBox="0 0 1024 1024" role="img">
  <title>Asgard — ECT pantheon — icon variant</title>
  <desc>Toolbox. Central citadel surrounded by six realm orbs — the home of the pantheon. Rendered in the icon color treatment.</desc>
  <rect x="0" y="0" width="1024" height="1024" rx="180" fill="#214080"/>
  <g transform="translate(512, 512) scale(7.4)">
    
    <circle cx="0" cy="0" r="52" fill="none" stroke="#f3e830" stroke-width="2"/>
    <circle cx="0" cy="0" r="44" fill="none" stroke="#f3e830" stroke-width="0.6" opacity="0.55"/>
    <g stroke="#f3e830" stroke-width="1.6" fill="none">
      <path d="M 0 -48 C -14 -38 -14 -28 0 -22 C 14 -28 14 -38 0 -48"/>
      <path d="M 48 0 C 38 -14 28 -14 22 0 C 28 14 38 14 48 0"/>
      <path d="M 0 48 C 14 38 14 28 0 22 C -14 28 -14 38 0 48"/>
      <path d="M -48 0 C -38 14 -28 14 -22 0 C -28 -14 -38 -14 -48 0"/>
    </g>
    <circle cx="0" cy="-32" r="2.5" fill="#ffffff"/>
    <circle cx="32" cy="0" r="2.5" fill="#ffffff"/>
    <circle cx="0" cy="32" r="2.5" fill="#ffffff"/>
    <circle cx="-32" cy="0" r="2.5" fill="#ffffff"/>
    
    <circle cx="-11" cy="-19" r="3" fill="#ffffff"/>
    <circle cx="11" cy="-19" r="3" fill="#ffffff"/>
    <circle cx="22" cy="0" r="3" fill="#ffffff"/>
    <circle cx="11" cy="19" r="3" fill="#ffffff"/>
    <circle cx="-11" cy="19" r="3" fill="#ffffff"/>
    <circle cx="-22" cy="0" r="3" fill="#ffffff"/>
    <rect x="-13" y="9" width="26" height="3" rx="1" fill="#f3e830"/>
    <rect x="-5" y="-13" width="10" height="22" fill="#f3e830"/>
    <path d="M -7 -13 L 0 -22 L 7 -13 Z" fill="#f3e830"/>
    <rect x="-2" y="4" width="4" height="5" fill="#214080"/>
    <rect x="-1" y="-7" width="2" height="4" fill="#214080"/>
  </g>
</svg>
