<?xml version="1.0" encoding="UTF-8"?>
<svg xmlns="http://www.w3.org/2000/svg" viewBox="0 0 1024 1024" role="img">
  <title>Bifrost — ECT pantheon — light variant</title>
  <desc>Integrations and ETL. Three nested arches of the rainbow bridge. Rendered in the light color treatment.</desc>
  
  <g transform="translate(512, 512) scale(7.4)">
    
    <circle cx="0" cy="0" r="52" fill="none" stroke="#214080" stroke-width="2"/>
    <circle cx="0" cy="0" r="44" fill="none" stroke="#214080" stroke-width="0.6" opacity="0.6"/>
    <g stroke="#214080" stroke-width="1.6" fill="none">
      <path d="M 0 -48 C -14 -38 -14 -28 0 -22 C 14 -28 14 -38 0 -48"/>
      <path d="M 48 0 C 38 -14 28 -14 22 0 C 28 14 38 14 48 0"/>
      <path d="M 0 48 C 14 38 14 28 0 22 C -14 28 -14 38 0 48"/>
      <path d="M -48 0 C -38 14 -28 14 -22 0 C -28 -14 -38 -14 -48 0"/>
    </g>
    <circle cx="0" cy="-32" r="2.5" fill="#f3e830"/>
    <circle cx="32" cy="0" r="2.5" fill="#f3e830"/>
    <circle cx="0" cy="32" r="2.5" fill="#f3e830"/>
    <circle cx="-32" cy="0" r="2.5" fill="#f3e830"/>
    
    <path d="M -26 18 Q 0 -22 26 18" stroke="#214080" stroke-width="3.5" fill="none" stroke-linecap="round"/>
    <path d="M -19 18 Q 0 -13 19 18" stroke="#214080" stroke-width="3" fill="none" stroke-linecap="round"/>
    <path d="M -12 18 Q 0 -4 12 18" stroke="#214080" stroke-width="2.6" fill="none" stroke-linecap="round"/>
    <circle cx="-26" cy="18" r="4" fill="#f3e830"/>
    <circle cx="26" cy="18" r="4" fill="#f3e830"/>
  </g>
</svg>
